<?xml version="1.0" encoding="UTF-8"?>
<!DOCTYPE svg PUBLIC "-//W3C//DTD SVG 1.1//EN" "http://www.w3.org/Graphics/SVG/1.1/DTD/svg11.dtd">
<svg version="1.1" viewBox="0 0 506 379" xmlns="http://www.w3.org/2000/svg">
 <g>
  <g transform="translate(0 379) scale(.1 -.1)">
   <path d="m0 1.9e3v-1.9e3h5.06e3v3.79e3h-5.06e3zm1.86e3 1.17e3c56-20 103-61 135-118 26-48 29-62 29-143-1-97-13-134-64-188-51-55-160-94-239-84-90 12-125 28-178 81-99 98-111 244-29 368 41 62 127 98 230 98 44-1 96-7 116-14zm602-3c58-21 113-71 138-127 29-63 27-66-45-66-61 0-66 2-87 31-56 79-200 78-249-3-15-24-20-50-20-100 0-62 2-69 33-101 60-64 161-60 227 8 31 32 39 35 91 35 32 0 61-4 64-10 11-18-41-105-83-137-99-76-259-80-363-10-93 63-134 210-92 332 20 61 85 127 144 148 61 21 182 21 242 0zm1.08e3-6c43-22 109-97 125-143 18-52 16-179-4-225-37-84-96-128-204-150-47-10-73-10-119-1-149 30-232 141-222 294 7 114 70 202 168 233 59 19 213 14 256-8zm-2.26e3-18c210-105 192-392-30-475-58-22-341-33-364-14-13 10-15 52-15 260 0 135 3 250 7 253 3 4 81 7 173 7 166 0 167 0 229-31zm1.84e3-69h-178v-428h-135c-4 6 0 428 0 428h-180v100l493-5zm1.03e3 77c57-31 95-98 84-154-12.7-53.7-63.7-102-116-121l124-230h-158l-116 210h-114l-1e-4-210h-128v527s89.5.25 193 .25c176 0 189-1 231-23zm-226-632c213-98 316-371 315-839 0-107-19-315-36-401-28-140-88-274-159-353-89-99-241-147-392-122-203 32-331 159-392 392-38 147-45 217-45 488 0 294 9 372 62 545 37 122 139 247 239 292 113 52 293 51 408-2zm-2.72e3 0 101-783l118 783h237l134-814 114 814h271l-217-1.69e3h-255l-155 792-159-792h-257l-213 1.69e3zm1.35e3 0 16-690 240 3v687h330l5-1.69e3h-335l1e-4 737-245 6-5-743h-330v1.69e3z"/>
   <path d="m1.67e3 2.94e3c-19-10-43-33-54-51-24-43-25-125-2-171 35-67 160-92 225-44 15 12 33 41 43 71 23 66 9 138-34 179-37 35-125 43-178 16z"/>
   <path d="m1.02e3 2.94e3c-3-8-4-70-3-139l3-124h80c62 1 88 5 115 21 43 25 80 78 80 114 0 39-39 92-84 114-52 25-183 35-191 14z"/>
   <path d="m3.67e3 2.11e3c-63-44-76-135-76-544 0-246 4-352 14-400 21-103 51-139 113-140 30 0 45 7 65 28 49 53 54 90 59 455 6 419-7 540-64 593-30 28-78 31-111 8z"/>
  </g>
  <ellipse cx="340" cy="98.6" rx="15.3" ry="15.7" stroke-width=".81"/>
  <rect x="386" y="83.7" width="19.5" height="8.73" rx="0" ry="1.36" stroke-width="1.26"/>
  <circle cx="404" cy="88.1" r="4.36" stroke-width=".858"/>
 </g>
</svg>
